<svg width="17" height="20" viewBox="0 0 17 20" fill="none" xmlns="http://www.w3.org/2000/svg">
<path d="M8.50065 10.0001C10.8018 10.0001 12.6673 8.1346 12.6673 5.83341C12.6673 3.53223 10.8018 1.66675 8.50065 1.66675C6.19946 1.66675 4.33398 3.53223 4.33398 5.83341C4.33398 8.1346 6.19946 10.0001 8.50065 10.0001Z" stroke="black" stroke-width="1.7"/>
<path d="M12.667 11.6667H12.9604C13.5696 11.6669 14.1578 11.8896 14.6145 12.2928C15.0711 12.6961 15.3648 13.2522 15.4404 13.8567L15.7662 16.4601C15.7955 16.6946 15.7746 16.9327 15.7049 17.1585C15.6351 17.3843 15.5182 17.5927 15.3617 17.7699C15.2053 17.9471 15.013 18.0889 14.7975 18.1861C14.582 18.2833 14.3484 18.3335 14.112 18.3334H2.88871C2.65236 18.3335 2.4187 18.2833 2.20325 18.1861C1.98779 18.0889 1.79546 17.9471 1.63902 17.7699C1.48258 17.5927 1.36562 17.3843 1.29588 17.1585C1.22614 16.9327 1.20524 16.6946 1.23454 16.4601L1.55954 13.8567C1.63512 13.2519 1.92906 12.6956 2.38607 12.2923C2.84308 11.889 3.43169 11.6665 4.04121 11.6667H4.33371" stroke="black" stroke-width="1.7" stroke-linecap="round" stroke-linejoin="round"/>
</svg>
